<?xml version="1.0" encoding="UTF-8" standalone="no"?>
<!DOCTYPE svg PUBLIC "-//W3C//DTD SVG 1.1//EN" "http://www.w3.org/Graphics/SVG/1.1/DTD/svg11.dtd">
<svg width="100%" height="100%" viewBox="0 0 16 16" version="1.1" xmlns="http://www.w3.org/2000/svg" xmlns:xlink="http://www.w3.org/1999/xlink" xml:space="preserve" xmlns:serif="http://www.serif.com/" style="fill-rule:evenodd;clip-rule:evenodd;stroke-linejoin:round;stroke-miterlimit:2;">
    <g transform="matrix(0.278381,0,0,0.278381,-8.98737,3.13203)">
        <g transform="matrix(50,0,0,50,34.8221,23.8902)">
            <path d="M0.543,-0.088C0.536,-0.088 0.528,-0.094 0.521,-0.105C0.513,-0.116 0.509,-0.127 0.508,-0.138C0.503,-0.177 0.496,-0.222 0.489,-0.274C0.481,-0.325 0.471,-0.386 0.458,-0.457C0.438,-0.419 0.418,-0.381 0.399,-0.344C0.38,-0.307 0.36,-0.269 0.341,-0.232C0.329,-0.209 0.317,-0.197 0.304,-0.197C0.285,-0.197 0.271,-0.207 0.26,-0.226C0.237,-0.26 0.213,-0.292 0.188,-0.322C0.163,-0.351 0.137,-0.381 0.11,-0.41C0.109,-0.365 0.109,-0.322 0.112,-0.279C0.114,-0.236 0.118,-0.194 0.124,-0.153C0.125,-0.146 0.125,-0.139 0.122,-0.134C0.119,-0.128 0.115,-0.124 0.112,-0.123C0.103,-0.12 0.093,-0.122 0.084,-0.129C0.075,-0.136 0.069,-0.144 0.067,-0.153C0.061,-0.177 0.057,-0.204 0.054,-0.233C0.051,-0.262 0.05,-0.292 0.049,-0.322C0.048,-0.352 0.047,-0.382 0.047,-0.411C0.047,-0.44 0.047,-0.467 0.048,-0.491C0.048,-0.518 0.057,-0.531 0.074,-0.531C0.085,-0.531 0.094,-0.527 0.101,-0.52C0.108,-0.512 0.112,-0.501 0.113,-0.487C0.146,-0.454 0.178,-0.42 0.208,-0.385C0.237,-0.349 0.266,-0.314 0.294,-0.278C0.317,-0.32 0.341,-0.363 0.365,-0.408C0.389,-0.452 0.416,-0.495 0.446,-0.537C0.447,-0.544 0.451,-0.552 0.457,-0.56C0.463,-0.567 0.47,-0.572 0.477,-0.575C0.484,-0.578 0.492,-0.575 0.5,-0.566C0.508,-0.557 0.513,-0.547 0.516,-0.536C0.527,-0.469 0.537,-0.401 0.546,-0.334C0.554,-0.267 0.562,-0.199 0.57,-0.132C0.571,-0.119 0.569,-0.109 0.563,-0.101C0.557,-0.092 0.55,-0.088 0.543,-0.088Z" style="fill-rule:nonzero;"/>
        </g>
        <g transform="matrix(50,0,0,50,65.3221,23.8902)">
            <path d="M0.151,-0.115C0.144,-0.118 0.138,-0.123 0.131,-0.13C0.124,-0.137 0.119,-0.144 0.118,-0.149C0.115,-0.162 0.111,-0.179 0.107,-0.198C0.103,-0.217 0.099,-0.238 0.095,-0.26C0.091,-0.282 0.087,-0.305 0.084,-0.328C0.08,-0.35 0.076,-0.373 0.073,-0.394C0.07,-0.415 0.067,-0.433 0.065,-0.45C0.063,-0.467 0.062,-0.48 0.061,-0.49C0.061,-0.501 0.065,-0.507 0.072,-0.508C0.089,-0.51 0.102,-0.504 0.109,-0.489C0.112,-0.477 0.116,-0.463 0.12,-0.448C0.124,-0.433 0.128,-0.416 0.132,-0.398C0.148,-0.404 0.162,-0.412 0.175,-0.421C0.188,-0.43 0.198,-0.44 0.207,-0.452C0.215,-0.463 0.221,-0.474 0.225,-0.486C0.228,-0.497 0.229,-0.509 0.226,-0.52C0.223,-0.533 0.213,-0.542 0.198,-0.548C0.183,-0.554 0.165,-0.557 0.146,-0.557C0.119,-0.557 0.095,-0.552 0.075,-0.543C0.054,-0.533 0.034,-0.521 0.017,-0.507C0.009,-0.501 0,-0.499 -0.01,-0.502C-0.019,-0.504 -0.026,-0.51 -0.029,-0.52C-0.029,-0.529 -0.027,-0.537 -0.024,-0.544C-0.021,-0.551 -0.016,-0.557 -0.011,-0.562C0.01,-0.583 0.034,-0.598 0.063,-0.607C0.091,-0.616 0.121,-0.62 0.152,-0.62C0.177,-0.62 0.202,-0.616 0.226,-0.608C0.249,-0.6 0.269,-0.586 0.286,-0.565C0.294,-0.552 0.298,-0.538 0.299,-0.523C0.299,-0.508 0.297,-0.494 0.292,-0.48C0.287,-0.466 0.281,-0.453 0.273,-0.44C0.264,-0.427 0.256,-0.416 0.247,-0.407C0.264,-0.408 0.281,-0.407 0.298,-0.403C0.315,-0.398 0.331,-0.391 0.345,-0.381C0.358,-0.37 0.369,-0.357 0.378,-0.34C0.387,-0.323 0.391,-0.303 0.391,-0.28C0.391,-0.253 0.385,-0.229 0.374,-0.207C0.362,-0.185 0.346,-0.166 0.328,-0.151C0.309,-0.136 0.287,-0.124 0.263,-0.115C0.238,-0.106 0.213,-0.102 0.187,-0.102C0.176,-0.102 0.167,-0.105 0.16,-0.112C0.157,-0.112 0.154,-0.113 0.151,-0.115ZM0.147,-0.325C0.152,-0.299 0.157,-0.272 0.162,-0.244C0.167,-0.216 0.172,-0.188 0.177,-0.16L0.181,-0.16C0.196,-0.16 0.212,-0.163 0.23,-0.168C0.247,-0.173 0.264,-0.181 0.279,-0.192C0.294,-0.202 0.307,-0.215 0.317,-0.23C0.327,-0.245 0.332,-0.261 0.331,-0.28C0.328,-0.297 0.32,-0.309 0.308,-0.318C0.296,-0.327 0.282,-0.332 0.265,-0.335C0.248,-0.338 0.229,-0.338 0.209,-0.336C0.188,-0.333 0.168,-0.33 0.147,-0.325Z" style="fill-rule:nonzero;"/>
        </g>
        <g transform="matrix(50,0,0,50,37.9971,50.0833)">
            <path d="M0.393,-0.336C0.389,-0.317 0.382,-0.3 0.372,-0.283C0.361,-0.266 0.349,-0.25 0.336,-0.235C0.323,-0.22 0.308,-0.208 0.293,-0.197C0.277,-0.186 0.261,-0.178 0.245,-0.172C0.216,-0.161 0.187,-0.158 0.158,-0.162C0.129,-0.165 0.103,-0.178 0.08,-0.201C0.065,-0.22 0.054,-0.241 0.048,-0.264C0.041,-0.287 0.038,-0.311 0.039,-0.336C0.039,-0.36 0.042,-0.383 0.049,-0.406C0.055,-0.429 0.063,-0.449 0.073,-0.467C0.085,-0.488 0.099,-0.506 0.116,-0.52C0.133,-0.534 0.151,-0.542 0.171,-0.545C0.176,-0.546 0.181,-0.545 0.184,-0.541C0.187,-0.537 0.189,-0.532 0.189,-0.527C0.196,-0.534 0.206,-0.539 0.22,-0.542C0.234,-0.545 0.25,-0.546 0.267,-0.543C0.299,-0.539 0.324,-0.529 0.343,-0.514C0.362,-0.499 0.376,-0.481 0.385,-0.461C0.394,-0.44 0.398,-0.419 0.399,-0.397C0.399,-0.374 0.397,-0.354 0.393,-0.336ZM0.175,-0.474C0.162,-0.468 0.151,-0.459 0.142,-0.448C0.133,-0.436 0.125,-0.423 0.12,-0.408C0.114,-0.393 0.11,-0.378 0.109,-0.361C0.107,-0.343 0.107,-0.327 0.108,-0.311C0.11,-0.288 0.117,-0.269 0.129,-0.254C0.141,-0.239 0.16,-0.231 0.185,-0.231C0.2,-0.231 0.214,-0.234 0.229,-0.24C0.243,-0.245 0.256,-0.253 0.268,-0.262C0.28,-0.271 0.291,-0.283 0.301,-0.296C0.311,-0.309 0.319,-0.322 0.325,-0.336C0.328,-0.343 0.331,-0.353 0.333,-0.364C0.335,-0.375 0.336,-0.386 0.335,-0.398C0.334,-0.409 0.332,-0.42 0.327,-0.431C0.322,-0.442 0.315,-0.451 0.305,-0.458C0.291,-0.468 0.274,-0.474 0.255,-0.476C0.236,-0.478 0.215,-0.474 0.194,-0.463C0.19,-0.46 0.186,-0.46 0.181,-0.462C0.175,-0.463 0.174,-0.467 0.175,-0.474Z" style="fill-rule:nonzero;"/>
        </g>
        <g transform="matrix(50,0,0,50,59.9471,50.0833)">
            <path d="M0.411,-0.509C0.388,-0.494 0.363,-0.474 0.335,-0.45C0.306,-0.425 0.278,-0.399 0.249,-0.371C0.269,-0.337 0.287,-0.305 0.304,-0.276C0.32,-0.246 0.333,-0.223 0.342,-0.206C0.345,-0.199 0.346,-0.191 0.343,-0.18C0.34,-0.169 0.335,-0.163 0.327,-0.161C0.32,-0.159 0.312,-0.16 0.304,-0.164C0.295,-0.168 0.289,-0.174 0.286,-0.181C0.273,-0.205 0.259,-0.229 0.246,-0.254C0.233,-0.278 0.218,-0.302 0.203,-0.326C0.176,-0.299 0.152,-0.274 0.131,-0.251C0.11,-0.228 0.093,-0.208 0.082,-0.193C0.073,-0.181 0.064,-0.175 0.056,-0.176C0.047,-0.176 0.04,-0.178 0.035,-0.182C0.03,-0.185 0.028,-0.19 0.027,-0.195C0.025,-0.2 0.026,-0.205 0.027,-0.21C0.028,-0.215 0.03,-0.22 0.033,-0.225C0.035,-0.23 0.037,-0.234 0.04,-0.238C0.053,-0.256 0.071,-0.277 0.093,-0.302C0.115,-0.327 0.14,-0.353 0.168,-0.381C0.134,-0.434 0.097,-0.486 0.057,-0.536C0.053,-0.543 0.051,-0.549 0.053,-0.554C0.054,-0.559 0.055,-0.562 0.057,-0.564C0.066,-0.571 0.076,-0.574 0.085,-0.572C0.094,-0.57 0.102,-0.566 0.111,-0.561C0.128,-0.545 0.145,-0.525 0.163,-0.502C0.18,-0.478 0.198,-0.453 0.215,-0.426C0.243,-0.451 0.272,-0.476 0.302,-0.501C0.331,-0.525 0.361,-0.547 0.391,-0.566C0.398,-0.57 0.406,-0.57 0.415,-0.567C0.424,-0.564 0.429,-0.558 0.432,-0.551C0.435,-0.543 0.434,-0.535 0.429,-0.528C0.424,-0.52 0.418,-0.514 0.411,-0.509Z" style="fill-rule:nonzero;"/>
        </g>
    </g>
</svg>
